<mxfile host="app.diagrams.net" agent="Mozilla/5.0 (Windows NT 10.0; Win64; x64) AppleWebKit/537.36 (KHTML, like Gecko) Chrome/127.0.0.0 Safari/537.36" version="24.7.6">
  <diagram name="Página-1" id="2tyQHCDzQSftHIi5NemC">
    <mxGraphModel dx="1050" dy="522" grid="1" gridSize="10" guides="1" tooltips="1" connect="1" arrows="1" fold="1" page="1" pageScale="1" pageWidth="827" pageHeight="1169" math="0" shadow="0">
      <root>
        <mxCell id="0" />
        <mxCell id="1" parent="0" />
        <mxCell id="syibpaN9cNoju-salscy-1" value="Empregador" style="shape=umlActor;verticalLabelPosition=bottom;verticalAlign=top;html=1;outlineConnect=0;" vertex="1" parent="1">
          <mxGeometry x="64" y="71" width="30" height="60" as="geometry" />
        </mxCell>
        <mxCell id="syibpaN9cNoju-salscy-2" value="Sistema" style="rounded=1;whiteSpace=wrap;html=1;fillColor=#d5e8d4;strokeColor=#82b366;" vertex="1" parent="1">
          <mxGeometry x="246" y="66" width="110" height="50" as="geometry" />
        </mxCell>
        <mxCell id="syibpaN9cNoju-salscy-3" value="" style="rounded=1;whiteSpace=wrap;html=1;rotation=90;fillColor=#000000;arcSize=50;" vertex="1" parent="1">
          <mxGeometry x="-13.25" y="285.75" width="188.5" height="20" as="geometry" />
        </mxCell>
        <mxCell id="syibpaN9cNoju-salscy-4" value="" style="endArrow=none;dashed=1;html=1;dashPattern=1 3;strokeWidth=2;rounded=0;" edge="1" parent="1">
          <mxGeometry width="50" height="50" relative="1" as="geometry">
            <mxPoint x="81" y="213" as="sourcePoint" />
            <mxPoint x="81" y="163" as="targetPoint" />
          </mxGeometry>
        </mxCell>
        <mxCell id="syibpaN9cNoju-salscy-5" value="" style="rounded=1;whiteSpace=wrap;html=1;rotation=90;fillColor=#000000;arcSize=50;" vertex="1" parent="1">
          <mxGeometry x="196.38" y="297.25" width="209" height="20" as="geometry" />
        </mxCell>
        <mxCell id="syibpaN9cNoju-salscy-6" value="" style="endArrow=none;dashed=1;html=1;dashPattern=1 3;strokeWidth=2;rounded=0;" edge="1" parent="1">
          <mxGeometry width="50" height="50" relative="1" as="geometry">
            <mxPoint x="300.5" y="210" as="sourcePoint" />
            <mxPoint x="301" y="140" as="targetPoint" />
          </mxGeometry>
        </mxCell>
        <mxCell id="syibpaN9cNoju-salscy-7" value="" style="endArrow=classic;html=1;rounded=0;" edge="1" parent="1">
          <mxGeometry width="50" height="50" relative="1" as="geometry">
            <mxPoint x="100" y="219" as="sourcePoint" />
            <mxPoint x="277" y="219" as="targetPoint" />
          </mxGeometry>
        </mxCell>
        <mxCell id="syibpaN9cNoju-salscy-8" value="1.Solicita exclusão" style="edgeLabel;html=1;align=center;verticalAlign=middle;resizable=0;points=[];" vertex="1" connectable="0" parent="syibpaN9cNoju-salscy-7">
          <mxGeometry x="-0.0275" relative="1" as="geometry">
            <mxPoint x="-2" y="-1" as="offset" />
          </mxGeometry>
        </mxCell>
        <mxCell id="syibpaN9cNoju-salscy-9" value="Banco de Dados&lt;br&gt;Local" style="rounded=1;whiteSpace=wrap;html=1;fillColor=#d5e8d4;strokeColor=#82b366;" vertex="1" parent="1">
          <mxGeometry x="455" y="66" width="110" height="50" as="geometry" />
        </mxCell>
        <mxCell id="syibpaN9cNoju-salscy-10" value="" style="rounded=1;whiteSpace=wrap;html=1;rotation=90;fillColor=#000000;arcSize=50;" vertex="1" parent="1">
          <mxGeometry x="408.75" y="297.25" width="209" height="20" as="geometry" />
        </mxCell>
        <mxCell id="syibpaN9cNoju-salscy-11" value="" style="endArrow=none;dashed=1;html=1;dashPattern=1 3;strokeWidth=2;rounded=0;" edge="1" parent="1">
          <mxGeometry width="50" height="50" relative="1" as="geometry">
            <mxPoint x="512.75" y="214" as="sourcePoint" />
            <mxPoint x="513.25" y="144" as="targetPoint" />
          </mxGeometry>
        </mxCell>
        <mxCell id="syibpaN9cNoju-salscy-13" value="" style="endArrow=classic;html=1;rounded=0;" edge="1" parent="1">
          <mxGeometry width="50" height="50" relative="1" as="geometry">
            <mxPoint x="319" y="275" as="sourcePoint" />
            <mxPoint x="499" y="275" as="targetPoint" />
          </mxGeometry>
        </mxCell>
        <mxCell id="syibpaN9cNoju-salscy-14" value="4.Verifica dado" style="edgeLabel;html=1;align=center;verticalAlign=middle;resizable=0;points=[];" vertex="1" connectable="0" parent="syibpaN9cNoju-salscy-13">
          <mxGeometry x="-0.0275" relative="1" as="geometry">
            <mxPoint x="-1" as="offset" />
          </mxGeometry>
        </mxCell>
        <mxCell id="syibpaN9cNoju-salscy-17" value="" style="endArrow=classic;html=1;rounded=0;dashed=1;" edge="1" parent="1">
          <mxGeometry width="50" height="50" relative="1" as="geometry">
            <mxPoint x="280" y="376" as="sourcePoint" />
            <mxPoint x="100" y="376" as="targetPoint" />
          </mxGeometry>
        </mxCell>
        <mxCell id="syibpaN9cNoju-salscy-18" value="11.Finaliza Exclusão" style="edgeLabel;html=1;align=center;verticalAlign=middle;resizable=0;points=[];" vertex="1" connectable="0" parent="syibpaN9cNoju-salscy-17">
          <mxGeometry x="0.1796" relative="1" as="geometry">
            <mxPoint x="16" as="offset" />
          </mxGeometry>
        </mxCell>
        <mxCell id="syibpaN9cNoju-salscy-19" value="" style="endArrow=none;dashed=1;html=1;rounded=0;" edge="1" parent="1">
          <mxGeometry width="50" height="50" relative="1" as="geometry">
            <mxPoint x="80.58" y="480" as="sourcePoint" />
            <mxPoint x="80.58" y="410" as="targetPoint" />
          </mxGeometry>
        </mxCell>
        <mxCell id="syibpaN9cNoju-salscy-20" value="" style="endArrow=none;html=1;rounded=0;strokeWidth=4;" edge="1" parent="1">
          <mxGeometry width="50" height="50" relative="1" as="geometry">
            <mxPoint x="53" y="539" as="sourcePoint" />
            <mxPoint x="103" y="489" as="targetPoint" />
          </mxGeometry>
        </mxCell>
        <mxCell id="syibpaN9cNoju-salscy-21" value="" style="endArrow=none;html=1;rounded=0;strokeWidth=4;" edge="1" parent="1">
          <mxGeometry width="50" height="50" relative="1" as="geometry">
            <mxPoint x="57" y="486" as="sourcePoint" />
            <mxPoint x="101" y="542" as="targetPoint" />
          </mxGeometry>
        </mxCell>
        <mxCell id="syibpaN9cNoju-salscy-22" value="" style="endArrow=classic;html=1;rounded=0;dashed=1;" edge="1" parent="1">
          <mxGeometry width="50" height="50" relative="1" as="geometry">
            <mxPoint x="500" y="294" as="sourcePoint" />
            <mxPoint x="320" y="292.88" as="targetPoint" />
          </mxGeometry>
        </mxCell>
        <mxCell id="syibpaN9cNoju-salscy-23" value="6.Confirma veraciade" style="edgeLabel;html=1;align=center;verticalAlign=middle;resizable=0;points=[];" vertex="1" connectable="0" parent="syibpaN9cNoju-salscy-22">
          <mxGeometry y="-2" relative="1" as="geometry">
            <mxPoint y="3" as="offset" />
          </mxGeometry>
        </mxCell>
        <mxCell id="syibpaN9cNoju-salscy-26" value="" style="endArrow=classic;html=1;rounded=0;dashed=1;" edge="1" parent="1">
          <mxGeometry width="50" height="50" relative="1" as="geometry">
            <mxPoint x="280" y="239" as="sourcePoint" />
            <mxPoint x="100" y="238.5" as="targetPoint" />
          </mxGeometry>
        </mxCell>
        <mxCell id="syibpaN9cNoju-salscy-27" value="2.Requisita token de verificação" style="edgeLabel;html=1;align=center;verticalAlign=middle;resizable=0;points=[];" vertex="1" connectable="0" parent="syibpaN9cNoju-salscy-26">
          <mxGeometry x="-0.0438" y="1" relative="1" as="geometry">
            <mxPoint y="-1" as="offset" />
          </mxGeometry>
        </mxCell>
        <mxCell id="syibpaN9cNoju-salscy-28" value="" style="endArrow=classic;html=1;rounded=0;" edge="1" parent="1">
          <mxGeometry width="50" height="50" relative="1" as="geometry">
            <mxPoint x="100" y="274" as="sourcePoint" />
            <mxPoint x="277" y="274" as="targetPoint" />
          </mxGeometry>
        </mxCell>
        <mxCell id="syibpaN9cNoju-salscy-29" value="3.Entrada de dados(token)" style="edgeLabel;html=1;align=center;verticalAlign=middle;resizable=0;points=[];" vertex="1" connectable="0" parent="syibpaN9cNoju-salscy-28">
          <mxGeometry x="-0.0275" relative="1" as="geometry">
            <mxPoint x="-2" y="-1" as="offset" />
          </mxGeometry>
        </mxCell>
        <mxCell id="syibpaN9cNoju-salscy-30" value="" style="endArrow=classic;html=1;rounded=0;dashed=1;" edge="1" parent="1">
          <mxGeometry width="50" height="50" relative="1" as="geometry">
            <mxPoint x="281" y="293.37" as="sourcePoint" />
            <mxPoint x="101" y="292.25" as="targetPoint" />
          </mxGeometry>
        </mxCell>
        <mxCell id="syibpaN9cNoju-salscy-31" value="5.Mensagem de confirmação" style="edgeLabel;html=1;align=center;verticalAlign=middle;resizable=0;points=[];" vertex="1" connectable="0" parent="syibpaN9cNoju-salscy-30">
          <mxGeometry y="-2" relative="1" as="geometry">
            <mxPoint y="3" as="offset" />
          </mxGeometry>
        </mxCell>
        <mxCell id="syibpaN9cNoju-salscy-32" value="" style="endArrow=classic;html=1;rounded=0;" edge="1" parent="1">
          <mxGeometry width="50" height="50" relative="1" as="geometry">
            <mxPoint x="100" y="326" as="sourcePoint" />
            <mxPoint x="277" y="326" as="targetPoint" />
          </mxGeometry>
        </mxCell>
        <mxCell id="syibpaN9cNoju-salscy-33" value="7.Confirmar exclusão" style="edgeLabel;html=1;align=center;verticalAlign=middle;resizable=0;points=[];" vertex="1" connectable="0" parent="syibpaN9cNoju-salscy-32">
          <mxGeometry x="-0.0275" relative="1" as="geometry">
            <mxPoint x="-2" y="-1" as="offset" />
          </mxGeometry>
        </mxCell>
        <mxCell id="syibpaN9cNoju-salscy-34" value="" style="endArrow=classic;html=1;rounded=0;" edge="1" parent="1">
          <mxGeometry width="50" height="50" relative="1" as="geometry">
            <mxPoint x="319" y="326" as="sourcePoint" />
            <mxPoint x="496" y="326" as="targetPoint" />
          </mxGeometry>
        </mxCell>
        <mxCell id="syibpaN9cNoju-salscy-35" value="8.Excluir dados" style="edgeLabel;html=1;align=center;verticalAlign=middle;resizable=0;points=[];" vertex="1" connectable="0" parent="syibpaN9cNoju-salscy-34">
          <mxGeometry x="-0.0275" relative="1" as="geometry">
            <mxPoint x="-2" y="-1" as="offset" />
          </mxGeometry>
        </mxCell>
        <mxCell id="syibpaN9cNoju-salscy-36" value="" style="endArrow=classic;html=1;rounded=0;dashed=1;" edge="1" parent="1">
          <mxGeometry width="50" height="50" relative="1" as="geometry">
            <mxPoint x="490" y="341" as="sourcePoint" />
            <mxPoint x="320" y="341" as="targetPoint" />
          </mxGeometry>
        </mxCell>
        <mxCell id="syibpaN9cNoju-salscy-37" value="9.Dados deletados" style="edgeLabel;html=1;align=center;verticalAlign=middle;resizable=0;points=[];" vertex="1" connectable="0" parent="syibpaN9cNoju-salscy-36">
          <mxGeometry x="0.0875" y="2" relative="1" as="geometry">
            <mxPoint x="6" y="-3" as="offset" />
          </mxGeometry>
        </mxCell>
        <mxCell id="syibpaN9cNoju-salscy-38" value="" style="endArrow=classic;html=1;rounded=0;dashed=1;" edge="1" parent="1">
          <mxGeometry width="50" height="50" relative="1" as="geometry">
            <mxPoint x="279" y="342.37" as="sourcePoint" />
            <mxPoint x="99" y="341.25" as="targetPoint" />
          </mxGeometry>
        </mxCell>
        <mxCell id="syibpaN9cNoju-salscy-39" value="10.Mensagem de confirmação" style="edgeLabel;html=1;align=center;verticalAlign=middle;resizable=0;points=[];" vertex="1" connectable="0" parent="syibpaN9cNoju-salscy-38">
          <mxGeometry y="-2" relative="1" as="geometry">
            <mxPoint y="3" as="offset" />
          </mxGeometry>
        </mxCell>
      </root>
    </mxGraphModel>
  </diagram>
</mxfile>
